<svg width="27" height="27" viewBox="0 0 27 27" fill="none" xmlns="http://www.w3.org/2000/svg">
<rect width="27" height="27" rx="13.5" fill="#E7EAFE"/>
<path d="M15 11.25C15.6665 12.139 15.6665 13.861 15 14.75M16.5 9.50001C18.494 11.404 18.506 14.6085 16.5 16.5M8 14.4795V11.52C8 11.233 8.224 11 8.5 11H10.293C10.3592 10.9998 10.4246 10.9861 10.4854 10.9599C10.5461 10.9337 10.6009 10.8955 10.6465 10.8475L12.1465 9.15351C12.4615 8.82551 13 9.05801 13 9.52151V16.4785C13 16.9455 12.455 17.176 12.142 16.8415L10.647 15.157C10.6013 15.1077 10.5459 15.0683 10.4843 15.0413C10.4227 15.0142 10.3563 15.0002 10.289 15H8.5C8.224 15 8 14.767 8 14.4795Z" stroke="#556FF6" stroke-width="1.2" stroke-linecap="round" stroke-linejoin="round"/>
</svg>
