<svg width="36" height="36" viewBox="0 0 36 36" fill="none" xmlns="http://www.w3.org/2000/svg">
<g clip-path="url(#clip0_2846_128711)">
<path d="M31.375 0H4.625C2.07068 0 0 2.07068 0 4.625V31.375C0 33.9293 2.07068 36 4.625 36H31.375C33.9293 36 36 33.9293 36 31.375V4.625C36 2.07068 33.9293 0 31.375 0Z" fill="#EAF2FB"/>
<path d="M18 26.1875H12.4286C12.1823 26.1875 11.9461 26.088 11.772 25.9109C11.5978 25.7338 11.5 25.4935 11.5 25.2431V10.1319C11.5 9.88146 11.5978 9.64124 11.772 9.46412C11.9461 9.287 12.1823 9.1875 12.4286 9.1875H18.1597C18.6522 9.18761 19.1245 9.38668 19.4727 9.74094L23.9559 14.3007C24.3042 14.6549 24.4999 15.1352 24.5 15.6362V18.6875" stroke="#4086D9" stroke-width="1.25" stroke-linecap="round" stroke-linejoin="round"/>
<path d="M17.5 9.1875V15.1875C17.5 15.4527 17.6054 15.7071 17.7929 15.8946C17.9804 16.0821 18.2348 16.1875 18.5 16.1875H24.5" stroke="#4086D9" stroke-width="1.25" stroke-linejoin="round"/>
<path d="M21.0003 24.0543L24.1601 20.8946C24.5506 20.5041 25.1838 20.5041 25.5743 20.8946L26.2814 21.6017C26.6719 21.9922 26.6719 22.6254 26.2814 23.0159L23.1217 26.1757C23.0212 26.2762 22.9004 26.3541 22.7674 26.4043L20.8049 27.1442C20.322 27.3263 19.8497 26.854 20.0318 26.3711L20.7718 24.4086C20.8219 24.2756 20.8998 24.1549 21.0003 24.0543Z" stroke="#4086D9"/>
<path d="M23.4531 21.6016L25.5744 23.7229" stroke="#4086D9"/>
</g>
<defs>
<clipPath id="clip0_2846_128711">
<rect width="36" height="36" fill="white"/>
</clipPath>
</defs>
</svg>
