<svg width="27" height="27" viewBox="0 0 27 27" fill="none" xmlns="http://www.w3.org/2000/svg">
<path d="M27 13.5C27 20.9587 20.9587 27 13.5 27C6.04125 27 0 20.9587 0 13.5C0 6.04125 6.04125 0 13.5 0C20.9587 0 27 6.04125 27 13.5Z" fill="url(#paint0_linear_1_36)"/>
<path d="M11.025 19.6875C10.5862 19.6875 10.665 19.5188 10.5075 19.1025L9.22498 14.8725L17.19 9.9L18.1237 10.1475L17.3475 12.2625L11.025 19.6875Z" fill="#C8DAEA"/>
<path d="M11.475 16.3125C11.8125 16.3125 11.9587 16.155 12.15 15.975C12.4425 15.6937 16.2 12.0375 16.2 12.0375L13.8937 11.475L11.7562 12.825L11.475 16.2V16.3125Z" fill="#A9C9DD"/>
<path d="M11.25 16.245L16.695 20.2613C17.3137 20.5988 17.7637 20.43 17.9212 19.6875L20.1375 9.2475C20.3625 8.33625 19.7887 7.93125 19.1925 8.20125L6.18749 13.2188C5.29874 13.5788 5.30999 14.0738 6.02999 14.2875L9.37124 15.3338L17.1 10.4625C17.46 10.2375 17.7975 10.3613 17.5275 10.6088L11.25 16.245Z" fill="url(#paint1_linear_1_36)"/>
<defs>
<linearGradient id="paint0_linear_1_36" x1="17.4566" y1="4.26713" x2="10.7066" y2="20.0169" gradientUnits="userSpaceOnUse">
<stop stop-color="#37AEE2"/>
<stop offset="1" stop-color="#1E96C8"/>
</linearGradient>
<linearGradient id="paint1_linear_1_36" x1="14.5115" y1="13.9224" x2="17.324" y2="18.4224" gradientUnits="userSpaceOnUse">
<stop stop-color="#EFF7FC"/>
<stop offset="1" stop-color="white"/>
</linearGradient>
</defs>
</svg>
