<svg width="14" height="13" viewBox="0 0 14 13" fill="none" xmlns="http://www.w3.org/2000/svg">
<path d="M10.4357 0.912476C10.9458 0.912447 11.4367 1.10736 11.8078 1.45733C12.179 1.8073 12.4024 2.28588 12.4323 2.79514L12.4357 2.91248V5.81248L12.8317 5.63648C13.241 5.45448 13.713 5.73648 13.765 6.16848L13.769 6.24581V11.5791C13.7691 11.9155 13.6421 12.2395 13.4133 12.4862C13.1846 12.7328 12.8711 12.8839 12.5357 12.9091L12.4357 12.9125H1.769C1.43262 12.9126 1.10862 12.7855 0.86197 12.5568C0.615316 12.3281 0.464231 12.0146 0.439002 11.6791L0.435669 11.5791V6.24581C0.435669 5.79781 0.885669 5.48114 1.30034 5.60914L1.37367 5.63648L1.769 5.81248V2.91248C1.76897 2.40234 1.96389 1.91147 2.31386 1.5403C2.66383 1.16914 3.14241 0.945737 3.65167 0.915809L3.769 0.912476H10.4357ZM10.4357 2.24581H3.769C3.59219 2.24581 3.42262 2.31605 3.2976 2.44107C3.17257 2.5661 3.10234 2.73566 3.10234 2.91248V6.40514L7.10234 8.18314L11.1023 6.40514V2.91248C11.1023 2.73566 11.0321 2.5661 10.9071 2.44107C10.7821 2.31605 10.6125 2.24581 10.4357 2.24581ZM7.10234 4.24581C7.27226 4.246 7.43569 4.31106 7.55925 4.42771C7.68281 4.54435 7.75716 4.70378 7.76712 4.87341C7.77708 5.04303 7.72189 5.21006 7.61283 5.34036C7.50377 5.47067 7.34907 5.55441 7.18034 5.57448L7.10234 5.57914H5.769C5.59908 5.57895 5.43565 5.51389 5.31209 5.39724C5.18853 5.2806 5.11418 5.12117 5.10422 4.95155C5.09426 4.78192 5.14945 4.61489 5.25851 4.48459C5.36757 4.35429 5.52227 4.27054 5.691 4.25048L5.769 4.24581H7.10234Z" fill="url(#paint0_linear_214_5353)"/>
<defs>
<linearGradient id="paint0_linear_214_5353" x1="7.10234" y1="0.912476" x2="7.10234" y2="12.9125" gradientUnits="userSpaceOnUse">
<stop stop-color="#E8AD7A"/>
<stop offset="1" stop-color="#DD705B"/>
</linearGradient>
</defs>
</svg>
