<svg width="12" height="16" viewBox="0 0 12 16" fill="none" xmlns="http://www.w3.org/2000/svg">
<path d="M9.60242 5.91248H9.10242V3.41248C9.10242 2.61683 8.78635 1.85376 8.22374 1.29116C7.66113 0.728546 6.89807 0.412476 6.10242 0.412476C5.30677 0.412476 4.54371 0.728546 3.9811 1.29116C3.41849 1.85376 3.10242 2.61683 3.10242 3.41248V5.91248H2.60242C2.07216 5.91305 1.56379 6.12395 1.18884 6.4989C0.813896 6.87385 0.602996 7.38222 0.602417 7.91248V13.4125C0.602996 13.9427 0.813896 14.4511 1.18884 14.826C1.56379 15.201 2.07216 15.4119 2.60242 15.4125H9.60242C10.1327 15.4119 10.641 15.201 11.016 14.826C11.3909 14.4511 11.6018 13.9427 11.6024 13.4125V7.91248C11.6018 7.38222 11.3909 6.87385 11.016 6.4989C10.641 6.12395 10.1327 5.91305 9.60242 5.91248ZM8.10242 5.91248H4.10242V3.41248C4.10242 2.88204 4.31313 2.37333 4.6882 1.99826C5.06328 1.62319 5.57198 1.41248 6.10242 1.41248C6.63285 1.41248 7.14156 1.62319 7.51663 1.99826C7.8917 2.37333 8.10242 2.88204 8.10242 3.41248V5.91248Z" fill="url(#paint0_linear_214_4896)"/>
<defs>
<linearGradient id="paint0_linear_214_4896" x1="6.10242" y1="0.412476" x2="6.10242" y2="15.4125" gradientUnits="userSpaceOnUse">
<stop stop-color="#E8AD7A"/>
<stop offset="1" stop-color="#DD705B"/>
</linearGradient>
</defs>
</svg>
