<svg width="12" height="15" viewBox="0 0 12 15" fill="none" xmlns="http://www.w3.org/2000/svg">
<path d="M10.7691 13.9125V12.5791C10.7691 11.8719 10.4882 11.1936 9.98808 10.6935C9.48798 10.1934 8.8097 9.91248 8.10246 9.91248H4.10246C3.39521 9.91248 2.71694 10.1934 2.21684 10.6935C1.71674 11.1936 1.43579 11.8719 1.43579 12.5791V13.9125" stroke="url(#paint0_linear_214_4872)" stroke-width="2" stroke-linecap="round" stroke-linejoin="round"/>
<path d="M6.10246 7.24581C7.57522 7.24581 8.76912 6.0519 8.76912 4.57914C8.76912 3.10638 7.57522 1.91248 6.10246 1.91248C4.6297 1.91248 3.43579 3.10638 3.43579 4.57914C3.43579 6.0519 4.6297 7.24581 6.10246 7.24581Z" stroke="url(#paint1_linear_214_4872)" stroke-width="2" stroke-linecap="round" stroke-linejoin="round"/>
<defs>
<linearGradient id="paint0_linear_214_4872" x1="6.10246" y1="9.91248" x2="6.10246" y2="13.9125" gradientUnits="userSpaceOnUse">
<stop stop-color="#E8AD7A"/>
<stop offset="1" stop-color="#DD705B"/>
</linearGradient>
<linearGradient id="paint1_linear_214_4872" x1="6.10246" y1="1.91248" x2="6.10246" y2="7.24581" gradientUnits="userSpaceOnUse">
<stop stop-color="#E8AD7A"/>
<stop offset="1" stop-color="#DD705B"/>
</linearGradient>
</defs>
</svg>
