<svg width="16" height="16" viewBox="0 0 16 16" fill="none" xmlns="http://www.w3.org/2000/svg">
<path d="M8.34377 14.8125L8.31877 14.8084C8.32227 14.8111 8.32639 14.8129 8.33076 14.8136C8.33512 14.8143 8.3396 14.8139 8.34377 14.8125V14.8125ZM14.0281 5.86811C14.021 5.83041 14.0015 5.79616 13.9727 5.77082C13.9439 5.74547 13.9074 5.73048 13.8691 5.72822C13.8308 5.72596 13.7928 5.73655 13.7612 5.75833C13.7296 5.78011 13.7062 5.81182 13.6947 5.84842C13.6837 5.88318 13.6619 5.91354 13.6326 5.93516C13.6032 5.95677 13.5677 5.96853 13.5313 5.96874H13.0478C13.0166 5.96877 12.9859 5.96023 12.9591 5.94405L12.2597 5.52467C12.2329 5.50849 12.2022 5.49995 12.171 5.49999H11.0522C11.0182 5.49995 10.9849 5.51007 10.9566 5.52905L9.5769 6.44874C9.55305 6.46462 9.53353 6.48619 9.52011 6.51151C9.50669 6.53682 9.49979 6.56508 9.50002 6.59374V7.89811C9.49998 7.92937 9.50846 7.96005 9.52453 7.98686C9.54061 8.01368 9.56368 8.0356 9.59127 8.0503L11.4003 9.01592C11.4275 9.03055 11.4503 9.05216 11.4663 9.07852C11.4824 9.10489 11.4911 9.13506 11.4916 9.16592L11.5 9.89999C11.5005 9.93037 11.509 9.9601 11.5246 9.98616C11.5403 10.0122 11.5625 10.0337 11.5891 10.0484L12.316 10.4506C12.3429 10.4656 12.3653 10.4874 12.381 10.514C12.3967 10.5405 12.4049 10.5707 12.405 10.6015V12.1203C12.405 12.1535 12.4146 12.186 12.4326 12.2139C12.4506 12.2417 12.4763 12.2638 12.5065 12.2775C12.5368 12.2911 12.5703 12.2958 12.6032 12.2909C12.636 12.2859 12.6667 12.2716 12.6916 12.2497C12.9847 11.9915 13.405 11.6147 13.461 11.5284C13.5535 11.3853 13.6402 11.2387 13.7213 11.0887C13.8891 10.7779 14.0312 10.4539 14.1463 10.12C14.5425 8.9728 14.2294 6.91061 14.0281 5.86811V5.86811ZM8.95002 9.46249L7.03346 8.02499C7.01182 8.00876 6.98551 7.99999 6.95846 7.99999H6.04909C6.03353 8 6.01812 7.99695 6.00375 7.991C5.98938 7.98504 5.97632 7.97631 5.96533 7.9653L5.53658 7.53655C5.52497 7.52494 5.51118 7.51574 5.496 7.50947C5.48083 7.5032 5.46457 7.49997 5.44815 7.49999H3.78596C3.76253 7.49999 3.73963 7.49304 3.72016 7.48003C3.70068 7.46701 3.6855 7.44852 3.67653 7.42687C3.66757 7.40523 3.66522 7.38142 3.66979 7.35844C3.67436 7.33547 3.68565 7.31436 3.70221 7.2978L3.96533 7.03467C3.97632 7.02366 3.98938 7.01493 4.00375 7.00898C4.01812 7.00302 4.03353 6.99997 4.04909 6.99999H5.06065C5.11513 6.99999 5.16812 6.98219 5.21156 6.9493C5.25499 6.91641 5.28649 6.87024 5.30127 6.8178L5.51658 6.05217C5.52118 6.03572 5.52909 6.02038 5.53984 6.00711C5.55059 5.99383 5.56395 5.9829 5.57908 5.97499L6.43752 5.53311C6.45684 5.52313 6.47303 5.50802 6.48433 5.48945C6.49563 5.47087 6.5016 5.44954 6.50159 5.4278V5.03717C6.50162 5.01294 6.50903 4.98928 6.52283 4.96936L6.97908 4.31249C6.99277 4.29275 7.01219 4.2777 7.03471 4.26936L7.67315 4.02967C7.69573 4.02121 7.7152 4.00605 7.72893 3.98623C7.74267 3.9664 7.75003 3.94286 7.75002 3.91874V3.56249C7.75002 3.54295 7.7452 3.52372 7.73599 3.50649C7.72678 3.48927 7.71346 3.47458 7.69721 3.46374L7.05721 3.03811C7.03963 3.02654 7.0193 3.01982 6.99829 3.01861C6.97728 3.0174 6.95632 3.02176 6.93752 3.03124L6.06627 3.46686C6.04634 3.4767 6.02404 3.48072 6.00193 3.47845C5.97982 3.47619 5.95879 3.46773 5.94127 3.45405L5.52815 3.12749C5.51405 3.11615 5.50273 3.10174 5.49505 3.08536C5.48737 3.06898 5.48354 3.05106 5.48384 3.03297C5.48414 3.01488 5.48857 2.9971 5.49679 2.98099C5.50501 2.96487 5.5168 2.95085 5.53127 2.93999L5.8669 2.6928C5.88209 2.68165 5.8944 2.66704 5.90279 2.65017C5.91119 2.6333 5.91542 2.61466 5.91515 2.59582C5.91487 2.57698 5.91009 2.55848 5.90121 2.54186C5.89233 2.52525 5.8796 2.51099 5.86408 2.5003L5.34127 2.13561C5.32317 2.12287 5.30186 2.11547 5.27976 2.11425C5.25766 2.11304 5.23566 2.11806 5.21627 2.12874C5.02721 2.23217 4.47252 2.53842 4.27565 2.67624C3.36474 3.31503 2.63167 4.17544 2.14565 5.17624C2.08877 5.29374 2.01846 5.41342 2.01158 5.54249C2.00471 5.67155 1.90346 5.95967 1.86127 6.07624C1.85558 6.09199 1.85331 6.10878 1.8546 6.12548C1.85589 6.14218 1.86072 6.15842 1.86877 6.17311L2.98408 8.22249C2.99412 8.24111 3.00903 8.25667 3.02721 8.26749L4.20065 8.97186C4.21587 8.98093 4.22886 8.9933 4.23865 9.00807C4.24844 9.02284 4.25478 9.03962 4.25721 9.05717L4.49221 10.7615C4.49451 10.7779 4.50016 10.7936 4.50882 10.8076C4.51748 10.8216 4.52896 10.8337 4.54252 10.8431L5.45815 11.4725C5.48467 11.4907 5.50314 11.5185 5.50971 11.55L5.99534 13.8562C5.99806 13.8698 6.00325 13.8827 6.01065 13.8944C6.05627 13.9681 6.23815 14.2381 6.45752 14.2781C6.43721 14.2837 6.41908 14.2965 6.39877 14.3025C6.45147 14.3118 6.50363 14.3239 6.55502 14.3387C6.61752 14.3556 6.68002 14.37 6.74252 14.3834C6.84033 14.4028 6.85002 14.4178 6.8969 14.3309C6.9594 14.2147 7.03096 14.1747 7.0844 14.1603C7.10645 14.1552 7.12662 14.144 7.1426 14.128C7.15857 14.112 7.1697 14.0917 7.17471 14.0697L7.4894 12.6109C7.49601 12.5803 7.51385 12.5534 7.5394 12.5353L8.94565 11.5384C8.96199 11.5269 8.97532 11.5115 8.98451 11.4938C8.9937 11.476 8.99848 11.4563 8.99846 11.4362V9.56249C8.99864 9.54321 8.99437 9.52416 8.98596 9.50681C8.97756 9.48946 8.96526 9.47429 8.95002 9.46249V9.46249Z" fill="url(#paint0_linear_214_5354)"/>
<path d="M8.18753 1.5C8.18753 1.5 8.07347 1.50656 8.05034 1.50719C7.88097 1.51219 7.71201 1.52385 7.54347 1.54219C6.92906 1.60884 6.32735 1.763 5.75659 2C5.83253 2.0525 5.7019 2.10063 5.7019 2.10063L5.90628 2.5H7.00003L7.75003 2.875L8.40628 2.5L8.18753 1.5ZM11.0697 3.75187L11.5732 3.31437C11.5889 3.3007 11.601 3.28329 11.6083 3.26375C11.6156 3.2442 11.6179 3.22314 11.615 3.20248C11.6121 3.18182 11.604 3.16222 11.5916 3.14546C11.5791 3.12871 11.5627 3.11534 11.5438 3.10656L10.956 2.83375C10.9261 2.81982 10.892 2.81824 10.8609 2.82936C10.8299 2.84048 10.8046 2.8634 10.7903 2.89313L10.5482 3.39969C10.535 3.42738 10.5324 3.45896 10.541 3.4884C10.5496 3.51785 10.5687 3.54311 10.5947 3.55938L10.9216 3.76375C10.9443 3.77788 10.9709 3.78435 10.9976 3.78221C11.0243 3.78008 11.0495 3.76944 11.0697 3.75187ZM13.4263 4.39594L13.2441 4.11469C13.2413 4.11031 13.2388 4.10594 13.2363 4.10125C13.2035 4.03406 12.9319 3.48563 12.705 3.27281C12.5347 3.11188 12.4863 3.15812 12.4728 3.19375C12.4652 3.21345 12.4523 3.23072 12.4357 3.24375L11.5344 3.97219C11.5122 3.99015 11.4845 3.99996 11.456 4H10.9894C10.973 3.99999 10.9567 4.00321 10.9415 4.00948C10.9264 4.01576 10.9126 4.02496 10.901 4.03656L10.526 4.41156C10.5143 4.42317 10.5051 4.43696 10.4988 4.45213C10.4925 4.46731 10.4893 4.48357 10.4893 4.5C10.4893 4.51643 10.4925 4.53269 10.4988 4.54787C10.5051 4.56304 10.5143 4.57683 10.526 4.58844L10.901 4.96344C10.9126 4.97504 10.9264 4.98424 10.9415 4.99052C10.9567 4.99679 10.973 5.00001 10.9894 5H13.3385C13.3553 5.00002 13.372 4.99661 13.3876 4.99C13.4031 4.98339 13.4171 4.97371 13.4288 4.96153C13.4405 4.94935 13.4496 4.93494 13.4555 4.91916C13.4615 4.90337 13.4642 4.88654 13.4635 4.86969L13.4463 4.45875C13.4454 4.4364 13.4384 4.41471 13.4263 4.39594Z" fill="url(#paint1_linear_214_5354)"/>
<path d="M8 2.25C9.3303 2.24989 10.6195 2.71105 11.6479 3.5549C12.6763 4.39875 13.3803 5.57308 13.6399 6.8778C13.8995 8.18251 13.6987 9.53689 13.0717 10.7102C12.4447 11.8834 11.4303 12.803 10.2013 13.3122C8.97228 13.8213 7.60476 13.8886 6.33171 13.5025C5.05867 13.1164 3.95888 12.3009 3.21973 11.1948C2.48059 10.0888 2.14782 8.76066 2.27813 7.43676C2.40844 6.11285 2.99377 4.87509 3.93438 3.93438C4.46699 3.39871 5.10058 2.97403 5.79845 2.6849C6.49632 2.39578 7.24461 2.24796 8 2.25ZM8 1C4.13438 1 1 4.13438 1 8C1 11.8656 4.13438 15 8 15C11.8656 15 15 11.8656 15 8C15 4.13438 11.8656 1 8 1Z" fill="url(#paint2_linear_214_5354)"/>
<defs>
<linearGradient id="paint0_linear_214_5354" x1="8.09555" y1="2.11407" x2="8.09555" y2="14.814" gradientUnits="userSpaceOnUse">
<stop stop-color="#E8AD7A"/>
<stop offset="1" stop-color="#DD705B"/>
</linearGradient>
<linearGradient id="paint1_linear_214_5354" x1="9.58274" y1="1.5" x2="9.58274" y2="5" gradientUnits="userSpaceOnUse">
<stop stop-color="#E8AD7A"/>
<stop offset="1" stop-color="#DD705B"/>
</linearGradient>
<linearGradient id="paint2_linear_214_5354" x1="8" y1="1" x2="8" y2="15" gradientUnits="userSpaceOnUse">
<stop stop-color="#E8AD7A"/>
<stop offset="1" stop-color="#DD705B"/>
</linearGradient>
</defs>
</svg>
